/* XPM */
static char *bc76f64103264082bd1ad5ad1c9e9aa8z57nCwQpKoRXz3tC[] = {
/* columns rows colors chars-per-pixel */
"32 32 5 1 ",
"  c #A08662",
". c #5A4E44",
"X c #796755",
"o c #423934",
"O c white",
/* pixels */
"                       .X  XX...",
"                      .o.XXX.oo.",
"                     X.oo..oooo.",
"                     X.o.oo  .o.",
"                     .oo.     oo",
"                     ooo.XX  X.o",
"                     Xooo.XXX.oo",
"                     XXooooooooX",
"                     XXo.oXXXXoX",
"                      .o.o.XX.o.",
"                      .oooo..oo.",
"                     X.o.  oo.o.",
"                     X.o     .o.",
"                     ..oX  XX.oo",
"                     .o..XXX.ooo",
"                     ooooooooooo",
"                     X.oXXXXo.o.",
"                     X.o.XX.o.o.",
"                     X.oo..oooo.",
"                     .oo.oo  .oo",
"                     ooo.     .o",
"                     .oo.XX  Xoo",
"                     X.oo.XXX.oo",
"                     XXooo...ooX",
"                     X.o.oXXXXo.",
"                      Xo.oXXX.oX",
"                      .ooo...oo.",
"                     X.ooXooooo.",
"                     X.oo.XXX.o.",
"                     X.oooo..ooo",
"                     Xoo.  oo.oo",
"   o     o.X   o     X.o     .oo"
};
