/* XPM */
static char *_fa222600783479bb9b6fa65a8d2a659CHZURljnpH4tadEq[] = {
/* columns rows colors chars-per-pixel */
"32 32 7 1 ",
"  c None",
". c #9CDB43",
"X c #423934",
"o c #796755",
"O c #5A4E44",
"+ c #C0F675",
"@ c white",
/* pixels */
"................................",
"................................",
"................................",
"................................",
"................................",
"................................",
"................................",
"................................",
"................................",
"................................",
"..............X....X............",
".............XoXXXXoX...........",
".............oOOXXOOo...........",
"............++OXXXXO++..........",
"...............XOOX.............",
".............XXoXXoXX...........",
"..........+XXXoOXXOoXXX+........",
"............XXXXOOXXXX..........",
"...........+.XXXXXXXX.+.........",
"............+X      X+..........",
"...........XXX      XXX.........",
"...........+X        X+.........",
"...........XOX  XX  XOX.........",
"............XOOXOOXOOX..........",
"..............XX..XX............",
"................................",
"................................",
"................................",
"................................",
"................................",
"................................",
"................................"
};
